<mxfile host="app.diagrams.net" modified="2022-07-20T17:14:14.240Z" agent="5.0 (Windows)" etag="LmmjDKir0fr9UHHA52GA" version="20.1.2" type="github">
  <diagram id="gnG7Gqf1GcRMlEO-_0OX" name="PÃ¡gina-1">
    <mxGraphModel dx="782" dy="371" grid="0" gridSize="10" guides="1" tooltips="1" connect="1" arrows="1" fold="1" page="1" pageScale="1" pageWidth="827" pageHeight="1169" math="0" shadow="0">
      <root>
        <mxCell id="0" />
        <mxCell id="1" parent="0" />
        <mxCell id="F4BGXveo6ZFS1zHAMtfn-1" value="Receta" style="swimlane;childLayout=stackLayout;horizontal=1;startSize=30;horizontalStack=0;rounded=1;fontSize=14;fontStyle=0;strokeWidth=2;resizeParent=0;resizeLast=1;shadow=0;dashed=0;align=center;html=1;" vertex="1" parent="1">
          <mxGeometry x="95" y="60" width="160" height="120" as="geometry" />
        </mxCell>
        <mxCell id="F4BGXveo6ZFS1zHAMtfn-2" value="&lt;div&gt;- id_receta&lt;/div&gt;&lt;div&gt;- dificultad&lt;/div&gt;&lt;div&gt;- descripcion&lt;/div&gt;&lt;div&gt;- tiempo_total&lt;/div&gt;&lt;div&gt;- raciones&lt;br&gt;&lt;/div&gt;" style="align=left;strokeColor=none;fillColor=none;spacingLeft=4;fontSize=12;verticalAlign=top;resizable=0;rotatable=0;part=1;html=1;" vertex="1" parent="F4BGXveo6ZFS1zHAMtfn-1">
          <mxGeometry y="30" width="160" height="90" as="geometry" />
        </mxCell>
        <mxCell id="F4BGXveo6ZFS1zHAMtfn-3" value="Ingrediente" style="swimlane;childLayout=stackLayout;horizontal=1;startSize=30;horizontalStack=0;rounded=1;fontSize=14;fontStyle=0;strokeWidth=2;resizeParent=0;resizeLast=1;shadow=0;dashed=0;align=center;html=1;" vertex="1" parent="1">
          <mxGeometry x="537" y="63" width="160" height="120" as="geometry" />
        </mxCell>
        <mxCell id="F4BGXveo6ZFS1zHAMtfn-4" value="&lt;div&gt;- id_ingrediente&lt;/div&gt;&lt;div&gt;- nom&lt;br&gt;&lt;/div&gt;&lt;div&gt;- calorias&lt;br&gt;&lt;/div&gt;&lt;div&gt;- precio&lt;br&gt;&lt;/div&gt;" style="align=left;strokeColor=none;fillColor=none;spacingLeft=4;fontSize=12;verticalAlign=top;resizable=0;rotatable=0;part=1;html=1;" vertex="1" parent="F4BGXveo6ZFS1zHAMtfn-3">
          <mxGeometry y="30" width="160" height="90" as="geometry" />
        </mxCell>
        <mxCell id="F4BGXveo6ZFS1zHAMtfn-7" value="" style="endArrow=none;html=1;rounded=0;fontSize=12;entryX=-0.025;entryY=0.433;entryDx=0;entryDy=0;entryPerimeter=0;exitX=1;exitY=0.5;exitDx=0;exitDy=0;startArrow=none;" edge="1" parent="1" source="F4BGXveo6ZFS1zHAMtfn-8" target="F4BGXveo6ZFS1zHAMtfn-4">
          <mxGeometry relative="1" as="geometry">
            <mxPoint x="323" y="131" as="sourcePoint" />
            <mxPoint x="483" y="131" as="targetPoint" />
          </mxGeometry>
        </mxCell>
        <mxCell id="F4BGXveo6ZFS1zHAMtfn-9" value="" style="endArrow=none;html=1;rounded=0;fontSize=12;exitX=0.5;exitY=0;exitDx=0;exitDy=0;" edge="1" parent="1" source="F4BGXveo6ZFS1zHAMtfn-8">
          <mxGeometry relative="1" as="geometry">
            <mxPoint x="327" y="202" as="sourcePoint" />
            <mxPoint x="401" y="95" as="targetPoint" />
          </mxGeometry>
        </mxCell>
        <mxCell id="F4BGXveo6ZFS1zHAMtfn-11" value="medidas" style="ellipse;whiteSpace=wrap;html=1;align=center;fontSize=12;" vertex="1" parent="1">
          <mxGeometry x="354" y="54" width="100" height="40" as="geometry" />
        </mxCell>
        <mxCell id="F4BGXveo6ZFS1zHAMtfn-8" value="compone" style="shape=rhombus;perimeter=rhombusPerimeter;whiteSpace=wrap;html=1;align=center;fontSize=12;" vertex="1" parent="1">
          <mxGeometry x="354" y="108" width="95" height="51" as="geometry" />
        </mxCell>
        <mxCell id="F4BGXveo6ZFS1zHAMtfn-12" value="" style="endArrow=none;html=1;rounded=0;fontSize=12;exitX=1;exitY=0.5;exitDx=0;exitDy=0;entryX=0;entryY=0.5;entryDx=0;entryDy=0;" edge="1" parent="1" source="F4BGXveo6ZFS1zHAMtfn-2" target="F4BGXveo6ZFS1zHAMtfn-8">
          <mxGeometry relative="1" as="geometry">
            <mxPoint x="255" y="135" as="sourcePoint" />
            <mxPoint x="350" y="135" as="targetPoint" />
          </mxGeometry>
        </mxCell>
      </root>
    </mxGraphModel>
  </diagram>
</mxfile>
